<svg id="Layer_1" data-name="Layer 1" xmlns="http://www.w3.org/2000/svg" viewBox="0 0 1200 1200"><defs><style>.cls-1{fill:#fff;}</style></defs><path class="cls-1" d="M653.42,685V618.71A82,82,0,0,0,684,626.13a83,83,0,1,0-74.54-110,5.85,5.85,0,0,0,5.53,7.77H650.4a6,6,0,0,0,4.91-2.67,39.29,39.29,0,1,1,0,43.94,5.93,5.93,0,0,0-4.89-2.65H610.73a5.85,5.85,0,0,0-5.86,5.85V685a6.16,6.16,0,0,1-6.16,6.16H475.6a6.15,6.15,0,0,1-6.15-6.16V618.71A81.91,81.91,0,0,0,500,626.13a83,83,0,1,0-74.55-110,5.86,5.86,0,0,0,5.54,7.77h35.44a6,6,0,0,0,4.91-2.67,39.3,39.3,0,1,1,0,43.94,6,6,0,0,0-4.9-2.65H426.75a5.85,5.85,0,0,0-5.85,5.85V728.33a11.42,11.42,0,0,0,11.42,11.42H773.76a5.34,5.34,0,0,0,5.34-5.33V696.54a5.34,5.34,0,0,0-5.34-5.34H659.58a6.16,6.16,0,0,1-6.16-6.16"/></svg>